<svg width="222" height="222" viewBox="0 0 222 222" fill="none" xmlns="http://www.w3.org/2000/svg">
<path d="M82.9858 29.6906C127.892 14.2188 176.838 38.0799 192.309 82.9858C207.781 127.892 183.92 176.837 139.014 192.309C94.1082 207.781 45.1624 183.92 29.6906 139.014C14.2188 94.1082 38.0799 45.1624 82.9858 29.6906Z" stroke="white" stroke-width="2"/>
<path d="M60.7224 121.976C60.4639 120.925 59.9419 120.212 59.1563 119.838C58.3673 119.453 57.2777 119.5 55.8877 119.979C55.0023 120.284 54.2964 120.643 53.7702 121.054C53.2543 121.463 52.8936 121.904 52.6883 122.377C52.4933 122.848 52.4362 123.334 52.517 123.836C52.552 124.239 52.6743 124.577 52.8836 124.85C53.0998 125.109 53.4048 125.31 53.7989 125.45C54.2032 125.587 54.6965 125.665 55.2787 125.683C55.8712 125.698 56.5544 125.659 57.3283 125.565L59.991 125.269C61.8073 125.058 63.3915 125.059 64.7437 125.273C66.1026 125.473 67.2534 125.871 68.1962 126.468C69.1389 127.065 69.8889 127.837 70.446 128.785C71.0134 129.73 71.4017 130.841 71.6108 132.116C71.9773 134.317 71.7756 136.356 71.0059 138.233C70.2361 140.111 68.9613 141.777 67.1817 143.231C65.402 144.685 63.1736 145.873 60.4966 146.796C57.7578 147.739 55.2908 148.134 53.0955 147.981C50.9069 147.813 49.0944 147.033 47.658 145.638C46.2284 144.23 45.2758 142.134 44.8001 139.349L52.9546 136.54C53.1645 137.55 53.5477 138.328 54.1043 138.873C54.6608 139.419 55.3631 139.736 56.2112 139.823C57.0593 139.911 58.029 139.767 59.1204 139.391C60.0471 139.072 60.8008 138.686 61.3817 138.232C61.9627 137.778 62.3744 137.285 62.617 136.753C62.8596 136.22 62.9334 135.682 62.8384 135.139C62.7576 134.637 62.5298 134.243 62.155 133.957C61.7802 133.672 61.217 133.491 60.4655 133.416C59.7139 133.341 58.7293 133.375 57.5116 133.518L54.2504 133.882C51.3502 134.19 48.9707 133.869 47.1118 132.92C45.2528 131.971 44.0984 130.192 43.6486 127.583C43.2828 125.451 43.505 123.405 44.3153 121.444C45.1323 119.469 46.4268 117.71 48.1987 116.167C49.9773 114.609 52.1228 113.398 54.6351 112.532C57.1885 111.653 59.4722 111.344 61.4861 111.606C63.5103 111.864 65.1642 112.637 66.448 113.922C67.742 115.204 68.5723 116.945 68.9388 119.146L60.7224 121.976ZM102.508 109.791L93.9214 112.75C93.7313 111.997 93.4631 111.353 93.1168 110.815C92.7704 110.278 92.3495 109.859 91.854 109.557C91.3549 109.245 90.7832 109.074 90.1389 109.042C89.4946 109.011 88.7811 109.13 87.9986 109.4C86.4954 109.918 85.2812 110.756 84.3561 111.916C83.4275 113.065 82.8113 114.47 82.5077 116.129C82.2006 117.778 82.2122 119.617 82.5425 121.646C82.8928 123.599 83.4128 125.141 84.1027 126.274C84.8028 127.404 85.6591 128.134 86.6715 128.465C87.6942 128.792 88.8542 128.732 90.1515 128.285C91.0164 127.987 91.7737 127.611 92.4235 127.157C93.0836 126.699 93.6311 126.182 94.0662 125.606C94.5079 125.016 94.8374 124.384 95.0545 123.711C95.2783 123.023 95.3848 122.312 95.374 121.579L104.023 118.599C104.154 120.051 104.039 121.623 103.678 123.314C103.312 124.995 102.662 126.653 101.728 128.288C100.791 129.912 99.54 131.397 97.9761 132.742C96.4123 134.087 94.4979 135.15 92.2327 135.931C89.2674 136.952 86.4853 137.185 83.8864 136.629C81.2979 136.07 79.0904 134.711 77.2641 132.553C75.4481 130.391 74.2111 127.419 73.5532 123.637C72.9378 119.979 73.077 116.689 73.9706 113.766C74.8642 110.844 76.3219 108.372 78.3439 106.351C80.3658 104.329 82.7462 102.847 85.485 101.903C87.5545 101.19 89.5018 100.825 91.3269 100.806C93.1623 100.784 94.8221 101.105 96.3062 101.769C97.7971 102.418 99.0727 103.413 100.133 104.752C101.194 106.092 101.985 107.771 102.508 109.791ZM109.972 129.335L104.325 95.8958L117.978 91.1919C120.326 90.3831 122.455 90.1275 124.366 90.4252C126.277 90.7228 127.864 91.5524 129.128 92.9138C130.392 94.2752 131.225 96.1421 131.628 98.5143C132.037 100.907 131.877 103.099 131.146 105.09C130.422 107.067 129.226 108.793 127.556 110.266C125.894 111.726 123.858 112.871 121.449 113.701L113.294 116.511L112.107 109.456L118.532 107.242C119.541 106.894 120.384 106.466 121.061 105.956C121.734 105.436 122.213 104.822 122.499 104.113C122.781 103.394 122.838 102.556 122.67 101.601C122.502 100.645 122.176 99.9335 121.693 99.4666C121.206 98.9893 120.582 98.7321 119.82 98.695C119.055 98.6476 118.178 98.7942 117.19 99.1347L114.163 100.178L118.559 126.376L109.972 129.335ZM125.913 107.602L136.413 120.225L127.084 123.439L116.77 110.752L125.913 107.602ZM139.447 119.179L133.801 85.7404L142.388 82.7819L146.824 108.897L159.612 104.492L160.822 111.815L139.447 119.179ZM164.293 110.619L158.647 77.1801L167.234 74.2215L171.67 100.337L184.458 95.9312L185.668 103.255L164.293 110.619Z" fill="white"/>
</svg>
